<svg width="122" height="43" viewBox="0 0 122 43" fill="none" xmlns="http://www.w3.org/2000/svg"><path d="M78.8378 21.2786C76.2728 21.2786 74.2822 19.3379 74.2822 16.4464C74.2822 13.595 76.2728 11.7333 78.8378 11.7333C81.594 11.7333 83.5081 13.9514 83.5081 16.4464C83.5081 19.2192 81.4793 21.2786 78.8378 21.2786ZM83.1636 0.485305V8.76273C81.594 7.13885 79.9478 6.58457 77.8425 6.58457C72.4828 6.58457 68.8459 10.9412 68.8459 16.4464C68.8459 22.1106 72.4828 26.5859 77.9572 26.5859C80.4839 26.5859 82.3981 25.6354 83.3934 23.9323H83.5081V25.8731H88.5998V0.485305H83.1636ZM95.8356 14.5851C96.2566 12.6443 97.8644 11.2186 100.008 11.2186C102.152 11.2186 103.875 12.6443 104.181 14.5851H95.8356ZM109.464 16.8032C109.464 10.9413 105.368 6.58457 99.9315 6.58457C94.4957 6.58457 90.4758 11.1791 90.4758 16.5655C90.4758 22.3583 94.8016 26.4673 100.047 26.4673C102.841 26.4673 105.626 25.1575 107.128 23.2693L102.966 20.6672C102.43 21.2215 101.157 21.7537 100.047 21.7537C97.8262 21.7537 96.0267 20.3675 95.8356 18.3081H109.388C109.464 17.7139 109.464 17.2783 109.464 16.8032ZM116.278 9.47604H116.164V7.25794H111.034V26.5069L116.47 29.9129V16.4464C116.47 13.4763 118.691 12.5653 121.255 12.5653V6.94099C119.609 6.94099 117.465 7.0597 116.278 9.47604ZM31.9409 21.2786C29.529 21.2786 27.6151 19.1001 27.6151 16.5655C27.6151 13.9514 29.529 11.8523 31.9409 11.8523C34.5059 11.8523 36.3054 14.0306 36.3054 16.5655C36.3054 19.1001 34.5059 21.2786 31.9409 21.2786ZM31.9409 6.58457C26.5048 6.58457 22.1789 10.7036 22.1789 16.5655C22.1789 22.3084 26.39 26.4673 31.9409 26.4673C37.492 26.4673 41.7417 22.3084 41.7417 16.4464C41.7417 10.8227 37.4155 6.58457 31.9409 6.58457ZM10.6174 21.2786C8.09071 21.2786 6.17653 19.3379 6.17653 16.5655C6.17653 13.9514 8.09071 11.8523 10.6174 11.8523C13.2972 11.8523 15.173 13.9514 15.173 16.5655C15.173 19.2192 13.2972 21.2786 10.6174 21.2786ZM11.8426 6.58457C9.62209 6.58457 7.63109 7.49563 6.17653 9.35695H6.06145V7.25794H0.970093V33.3191L6.40633 30.1112V24.2888C7.86089 25.8731 9.73683 26.586 11.8426 26.586C16.9721 26.586 20.6475 22.1106 20.6475 16.8032C20.6475 10.9414 16.9721 6.58457 11.8426 6.58457ZM55.2937 6.82239L60.2322 15.9363L63.869 7.25794H69.8796L60.8841 26.7888L55.2937 17.9528L49.7031 26.7888L40.7077 7.25794H46.7182L50.3551 15.9363L55.2937 6.82239ZM27.5285 35.5374L25.5615 39.4608L23.5857 35.5374H21.6271V42.2245H23.2767L23.2691 38.3755L25.4922 42.4814H25.6216L27.8173 38.4009L27.8158 42.2245H29.4871V35.5374H27.5285ZM77.799 39.9528L78.0261 39.4919C78.229 39.0276 78.4664 38.5439 78.5972 38.1235H78.6634C78.8003 38.5556 79.0287 39.0097 79.2373 39.4919L79.4639 39.9528H77.799ZM80.5807 42.2245H82.3999L78.6988 35.225H78.5615L74.8603 42.2245H76.6795L77.1913 41.1859H80.0701L80.5807 42.2245ZM92.7785 42.2245V35.5374H94.4588L97.5617 39.6259V35.5374H99.2334V42.2245H97.5617L94.4588 38.136V42.2245H92.7785ZM87.7449 35.5374V42.2245H86.0649V35.5374H87.7449ZM70.1585 37.0097V42.2245H68.4781V37.0097H66.8911V35.5374H71.7455V37.0097H70.1585ZM56.251 42.2245V35.5374H57.931L61.0343 39.6259V35.5374H62.7059V42.2245H61.0343L57.931 38.136V42.2245H56.251ZM47.2534 35.5374V39.1738C47.2534 39.3688 47.2604 39.5683 47.2748 39.7723C47.2889 39.9763 47.3316 40.1612 47.4031 40.3266C47.4748 40.4923 47.5877 40.6267 47.7417 40.7301C47.8962 40.8337 48.1429 40.8853 48.4229 40.8853C48.703 40.8853 48.9481 40.8337 49.0997 40.7301C49.2509 40.6267 49.364 40.4923 49.4383 40.3266C49.5125 40.1612 49.5569 39.9763 49.571 39.7723C49.5855 39.5683 49.5927 39.3688 49.5927 39.1738V35.5374H51.2641V39.413C51.2641 40.4539 51.034 41.2136 50.5741 41.6923C50.114 42.1713 49.3773 42.4109 48.4229 42.4109C47.4686 42.4109 46.7303 42.1713 46.2675 41.6923C45.8046 41.2136 45.573 40.4539 45.573 39.413V35.5374H47.2534ZM35.5194 38.8812C35.5194 39.147 35.5679 39.3925 35.6652 39.617C35.7622 39.8419 35.8935 40.0368 36.0595 40.2024C36.2249 40.3681 36.4181 40.4966 36.638 40.5883C36.858 40.6799 37.091 40.7257 37.3366 40.7257C37.5822 40.7257 37.8152 40.6799 38.0352 40.5883C38.2551 40.4966 38.4497 40.3681 38.6182 40.2024C38.7866 40.0368 38.9197 39.8419 39.017 39.617C39.1139 39.3925 39.1624 39.147 39.1624 38.8812C39.1624 38.6151 39.1139 38.3695 39.017 38.1449C38.9197 37.9204 38.7866 37.725 38.6182 37.5597C38.4497 37.3941 38.2551 37.2655 38.0352 37.1737C37.8152 37.0821 37.5822 37.0364 37.3366 37.0364C37.091 37.0364 36.858 37.0821 36.638 37.1737C36.4181 37.2655 36.2249 37.3941 36.0595 37.5597C35.8935 37.725 35.7622 37.9204 35.6652 38.1449C35.5679 38.3695 35.5194 38.6151 35.5194 38.8812ZM33.7621 38.8812C33.7621 38.3845 33.8506 37.9219 34.0279 37.493C34.2048 37.0645 34.4505 36.6905 34.7649 36.3714C35.0792 36.052 35.4551 35.802 35.8921 35.6217C36.3294 35.4416 36.8109 35.3514 37.3366 35.3514C37.8565 35.3514 38.3365 35.4416 38.7768 35.6217C39.2166 35.802 39.5954 36.052 39.9126 36.3714C40.2296 36.6905 40.477 37.0645 40.6539 37.493C40.8312 37.9219 40.9199 38.3845 40.9199 38.8812C40.9199 39.3778 40.8312 39.8404 40.6539 40.269C40.477 40.6978 40.2296 41.0717 39.9126 41.391C39.5954 41.7103 39.2166 41.9599 38.7768 42.1403C38.3365 42.3206 37.8565 42.4109 37.3366 42.4109C36.8109 42.4109 36.3294 42.3206 35.8921 42.1403C35.4551 41.9599 35.0792 41.7103 34.7649 41.391C34.4505 41.0717 34.2048 40.6978 34.0279 40.269C33.8506 39.8404 33.7621 39.3778 33.7621 38.8812Z" fill="#52ACFF"></path></svg>
